<svg version="1.1" xmlns="http://www.w3.org/2000/svg" xmlns:xlink="http://www.w3.org/1999/xlink" width="46.16752" height="77.01489" viewBox="0,0,46.16752,77.01489"><defs><linearGradient x1="214.832" y1="179.3417" x2="259.96438" y2="179.3417" gradientUnits="userSpaceOnUse" id="color-1"><stop offset="0" stop-color="#b1fffb" stop-opacity="0"/><stop offset="1" stop-color="#b1fffb"/></linearGradient><linearGradient x1="221.871" y1="179.44521" x2="254.58162" y2="179.44521" gradientUnits="userSpaceOnUse" id="color-2"><stop offset="0" stop-color="#52f4fd" stop-opacity="0"/><stop offset="1" stop-color="#52f4fd" stop-opacity="0"/></linearGradient><linearGradient x1="222.42058" y1="179.97366" x2="257.57943" y2="179.97366" gradientUnits="userSpaceOnUse" id="color-3"><stop offset="0" stop-color="#fc9797" stop-opacity="0"/><stop offset="1" stop-color="#fc9797"/></linearGradient><linearGradient x1="222.8268" y1="180.00783" x2="249.44714" y2="180.00783" gradientUnits="userSpaceOnUse" id="color-4"><stop offset="0" stop-color="#fc9797" stop-opacity="0"/><stop offset="1" stop-color="#fc9797"/></linearGradient><linearGradient x1="222.42058" y1="179.97366" x2="257.57943" y2="179.97366" gradientUnits="userSpaceOnUse" id="color-5"><stop offset="0" stop-color="#fc5151" stop-opacity="0"/><stop offset="1" stop-color="#fc5151"/></linearGradient></defs><g transform="translate(-213.79687,-140.93777)"><g data-paper-data="{&quot;isPaintingLayer&quot;:true}" fill-rule="nonzero" stroke-linejoin="miter" stroke-miterlimit="10" stroke-dasharray="" stroke-dashoffset="0" style="mix-blend-mode: normal"><path d="M214.21092,217.95266c0,0 6.48785,-28.39678 6.41903,-41.19772c-0.0692,-12.87032 -6.83308,-35.81717 -6.83308,-35.81717c0,0 19.24287,8.64954 25.91248,13.54266c7.89184,5.78981 20.25504,24.34369 20.25504,24.34369c0,0 -9.76186,16.67881 -17.56355,22.47639c-7.19292,5.3452 -28.18992,16.65214 -28.18992,16.65214z" fill="url(#color-1)" stroke="url(#color-2)" stroke-width="0" stroke-linecap="butt"/><g stroke="url(#color-5)" stroke-width="2.5" stroke-linecap="round"><path d="M223.73237,147.09866c0,0 34.19937,14.45396 33.84431,32.25c-0.35506,17.79604 -35.1561,33.5 -35.1561,33.5" fill="url(#color-3)"/><path d="M223.66681,147.11431c0,0 26.13179,14.43831 25.77674,32.23435c-0.35506,17.79604 -26.61675,33.55268 -26.61675,33.55268" fill="url(#color-4)"/></g></g></g></svg>