<svg version="1.1" xmlns="http://www.w3.org/2000/svg" xmlns:xlink="http://www.w3.org/1999/xlink" width="133.71465" height="55.75066" viewBox="0,0,133.71465,55.75066"><defs><linearGradient x1="306.57738" y1="150.43489" x2="281.41609" y2="207.16452" gradientUnits="userSpaceOnUse" id="color-1"><stop offset="0" stop-color="#ffffff" stop-opacity="0"/><stop offset="1" stop-color="#ffffff"/></linearGradient></defs><g transform="translate(-186.1485,-151.99298)"><g data-paper-data="{&quot;isPaintingLayer&quot;:true}" fill-rule="nonzero" stroke-linejoin="miter" stroke-miterlimit="10" stroke-dasharray="" stroke-dashoffset="0" style="mix-blend-mode: normal"><path d="M310.09031,151.99298l9.62416,41.45671l-65.21818,1.77509z" fill="url(#color-1)" stroke="none" stroke-width="0" stroke-linecap="butt"/><g data-paper-data="{&quot;index&quot;:null}" stroke-width="0"><g stroke="#000000" stroke-linecap="butt"><g><path d="M225.16101,195.57618l32.00801,-0.79869l0.16834,6.74593l-32.00801,0.7987z" fill="#000000"/><g fill="#ffffff"><path d="M225.30649,198.94764l2.09601,-3.26605l2.25628,3.15744l-2.09602,3.26606z"/><path d="M245.9621,198.43579l2.09602,-3.26606l2.25631,3.15747l-2.09602,3.26606z"/><path d="M240.75829,198.56538l2.09601,-3.26605l2.25628,3.15744l-2.09602,3.26607z"/><path d="M235.6064,198.69395l2.09601,-3.26606l2.25628,3.15745l-2.09601,3.26606z"/><path d="M230.53896,198.82039l2.09602,-3.26605l2.2563,3.15745l-2.09601,3.26606z"/></g></g><path d="M254.73106,207.74333c-1.66799,0.04161 -3.12367,-4.07104 -3.25129,-9.18589c-0.12762,-5.11485 1.12109,-9.29499 2.78911,-9.3366c1.66799,-0.04161 3.12365,4.07104 3.2513,9.18587c0.12762,5.11486 -1.1211,9.29499 -2.78912,9.33662z" fill="#f5f339"/></g><g stroke="none"><g fill="#ffffff"><path d="M254.89391,195.058l54.41349,-1.35776l0.16178,6.48317l-54.4135,1.35777z" stroke-linecap="butt"/><path d="M309.37603,200.22453l-0.16237,-6.50664l10.6495,-0.26574z" stroke-linecap="round"/></g><g fill="#cccccc"><path d="M254.89391,195.058l53.66435,-1.33908l0.14823,5.94025l-53.66435,1.33908z" stroke-linecap="butt"/><path d="M308.61455,199.69699l-0.14876,-5.96173l10.50289,-0.26209z" stroke-linecap="round"/></g></g></g><g data-paper-data="{&quot;index&quot;:null}" fill="#000000" stroke="#000000" stroke-width="1"><path d="M244.64038,160.27901l-47.8546,25.93472l-3.09004,-5.70172l47.8546,-25.93472z" stroke-linecap="butt"/><path d="M193.76005,180.43309l3.08549,5.69332l-9.36583,5.07579z" stroke-linecap="round"/></g><path d="M248.43461,200.05895c-0.75378,1.4777 -2.56275,2.06457 -4.04046,1.31079c-1.4777,-0.75377 -2.06456,-2.56275 -1.3108,-4.04045c0.75377,-1.4777 2.56276,-2.06456 4.04046,-1.3108c1.4777,0.75377 2.06457,2.56275 1.3108,4.04046z" fill="#ffe887" stroke="#000000" stroke-width="1.25" stroke-linecap="butt"/><path d="M237.40923,199.91522c-0.75377,1.4777 -2.56275,2.06457 -4.04046,1.3108c-1.4777,-0.75377 -2.06457,-2.56272 -1.3108,-4.04046c0.75377,-1.4777 2.56276,-2.06456 4.04046,-1.31079c1.4777,0.75377 2.06456,2.56275 1.31079,4.04045z" fill="#ffe887" stroke="#000000" stroke-width="1.25" stroke-linecap="butt"/></g></g></svg>