<svg version="1.1" xmlns="http://www.w3.org/2000/svg" xmlns:xlink="http://www.w3.org/1999/xlink" width="83.03358" height="94.91503" viewBox="0,0,83.03358,94.91503"><g transform="translate(-186.1485,-141.21981)"><g data-paper-data="{&quot;isPaintingLayer&quot;:true}" fill-rule="nonzero" stroke-linejoin="miter" stroke-miterlimit="10" stroke-dasharray="" stroke-dashoffset="0" style="mix-blend-mode: normal"><g data-paper-data="{&quot;index&quot;:null}" stroke-width="0"><g stroke="#000000" stroke-linecap="butt"><g><path d="M253.54879,235.49218l3.0493,-31.87243l6.71736,0.64266l-3.0493,31.87243z" fill="#000000"/><g fill="#ffffff"><path d="M256.91331,235.75244l-2.99085,-2.47291l3.40547,-1.86095l2.99084,2.47291z"/><path d="M258.88466,215.18474l-2.99084,-2.47291l3.40547,-1.86096l2.99084,2.47291z"/><path d="M258.38865,220.36649l-2.99084,-2.47291l3.40546,-1.86096l2.99085,2.47291z"/><path d="M257.89784,225.49657l-2.99084,-2.47291l3.40546,-1.86095l2.99085,2.47291z"/><path d="M257.41508,230.54253l-2.99084,-2.47291l3.40546,-1.86097l2.99085,2.47291z"/></g></g><path d="M269.17752,207.59648c-0.15891,1.66094 -4.41656,2.61239 -9.50975,2.12512c-5.09319,-0.48728 -9.09321,-2.22875 -8.9343,-3.8897c0.15891,-1.66094 4.41656,-2.61238 9.50974,-2.1251c5.09319,0.48728 9.0932,2.22876 8.93429,3.8897z" fill="#f5f339"/></g><g stroke="none"><g fill="#ffffff"><path d="M256.60347,205.91205l5.18381,-54.18302l6.45573,0.61763l-5.1838,54.18303z" stroke-linecap="butt"/><path d="M268.27263,152.44408l-6.47908,-0.61987l1.01455,-10.6044z" stroke-linecap="round"/></g><g fill="#cccccc"><path d="M256.60347,205.91205l5.11243,-53.43705l5.91508,0.56591l-5.11244,53.43706z" stroke-linecap="butt"/><path d="M267.65748,153.13673l-5.93647,-0.56794l1.00058,-10.4584z" stroke-linecap="round"/></g></g></g><g data-paper-data="{&quot;index&quot;:null}" fill="#000000" stroke="#000000" stroke-width="1"><path d="M244.64037,160.27902l-47.8546,25.93472l-3.09004,-5.70172l47.8546,-25.93472z" stroke-linecap="butt"/><path d="M193.76004,180.4331l3.08549,5.69332l-9.36583,5.07579z" stroke-linecap="round"/></g><path d="M260.79289,212.92497c1.37654,0.9257 1.74201,2.79205 0.8163,4.16859c-0.92571,1.37653 -2.79206,1.742 -4.16859,0.8163c-1.37653,-0.9257 -1.742,-2.79205 -0.8163,-4.16858c0.9257,-1.37653 2.79204,-1.74201 4.16858,-0.8163z" fill="#ffe887" stroke="#000000" stroke-width="1.25" stroke-linecap="butt"/><path d="M259.32672,223.85334c1.37654,0.9257 1.74201,2.79206 0.8163,4.16859c-0.9257,1.37653 -2.79204,1.74201 -4.16859,0.8163c-1.37653,-0.9257 -1.74201,-2.79206 -0.8163,-4.16859c0.9257,-1.37653 2.79206,-1.74201 4.16859,-0.8163z" fill="#ffe887" stroke="#000000" stroke-width="1.25" stroke-linecap="butt"/></g></g></svg>
