<svg version="1.1" xmlns="http://www.w3.org/2000/svg" xmlns:xlink="http://www.w3.org/1999/xlink" width="96.6829" height="101.85343" viewBox="0,0,96.6829,101.85343"><defs><linearGradient x1="304.34491" y1="220.21167" x2="243.43611" y2="232.10528" gradientUnits="userSpaceOnUse" id="color-1"><stop offset="0" stop-color="#ffffff" stop-opacity="0"/><stop offset="1" stop-color="#ffffff"/></linearGradient></defs><g transform="translate(-186.1485,-153.89946)"><g data-paper-data="{&quot;isPaintingLayer&quot;:true}" fill-rule="nonzero" stroke-linejoin="miter" stroke-miterlimit="10" stroke-dasharray="" stroke-dashoffset="0" style="mix-blend-mode: normal"><path d="M282.83141,223.48339l-6.20695,32.14625l-38.83222,-52.42729z" fill="url(#color-1)" stroke="none" stroke-width="0" stroke-linecap="butt"/><g data-paper-data="{&quot;index&quot;:null}" stroke-width="0"><g stroke="#000000" stroke-linecap="butt"><g><path d="M220.69177,179.36424l18.99881,25.772l-5.43164,4.00415l-18.99881,-25.77199z" fill="#000000"/><g fill="#ffffff"><path d="M218.01233,181.41568l3.8777,-0.1542l-1.29433,3.65855l-3.87772,0.1542z"/><path d="M230.26984,198.04908l3.87772,-0.1542l-1.29434,3.65858l-3.87772,0.1542z"/><path d="M227.18126,193.85896l3.8777,-0.1542l-1.29433,3.65855l-3.87772,0.15421z"/><path d="M224.12326,189.7108l3.87771,-0.1542l-1.29434,3.65854l-3.87771,0.1542z"/><path d="M221.11542,185.63062l3.87771,-0.15419l-1.29433,3.65856l-3.87771,0.1542z"/></g></g><path d="M227.66817,210.56931c-0.99005,-1.34303 1.54589,-4.89295 5.66423,-7.92893c4.11835,-3.03598 8.25951,-4.4084 9.24959,-3.06535c0.99005,1.34303 -1.5459,4.89293 -5.66422,7.92893c-4.11835,3.03599 -8.25952,4.4084 -9.24961,3.06535z" fill="#f5f339"/></g><g stroke="none"><g fill="#ffffff"><path d="M238.15681,203.4326l32.29789,43.8123l-5.22007,3.84819l-32.2979,-43.81231z" stroke-linecap="butt"/><path d="M265.14754,251.04032l5.23897,-3.86212l6.32116,8.57469z" stroke-linecap="round"/></g><g fill="#cccccc"><path d="M238.15681,203.4326l31.85323,43.20911l-4.78293,3.52592l-31.85323,-43.20911z" stroke-linecap="butt"/><path d="M265.14344,250.11396l4.80023,-3.53867l6.23415,8.45664z" stroke-linecap="round"/></g></g></g><g data-paper-data="{&quot;index&quot;:null}" fill="#000000" stroke="#000000" stroke-width="1"><path d="M244.64038,160.27901l-47.8546,25.93472l-3.09004,-5.70172l47.8546,-25.93472z" stroke-linecap="butt"/><path d="M193.76005,180.43309l3.08549,5.69332l-9.36583,5.07579z" stroke-linecap="round"/></g><path d="M230.35673,201.00549c-1.64293,0.22919 -3.16062,-0.91687 -3.38981,-2.55982c-0.2292,-1.64294 0.91688,-3.1606 2.5598,-3.38982c1.64294,-0.2292 3.16061,0.91688 3.38982,2.55982c0.2292,1.64294 -0.91687,3.16062 -2.55982,3.38982z" fill="#ffe887" stroke="#000000" stroke-width="1.25" stroke-linecap="butt"/><path d="M224.1557,191.8881c-1.64294,0.2292 -3.16062,-0.91687 -3.38982,-2.55982c-0.2292,-1.64294 0.91685,-3.1606 2.55982,-3.38982c1.64294,-0.2292 3.16061,0.91688 3.38981,2.55982c0.2292,1.64294 -0.91688,3.1606 -2.55981,3.38981z" fill="#ffe887" stroke="#000000" stroke-width="1.25" stroke-linecap="butt"/></g></g></svg>
