<svg version="1.1" xmlns="http://www.w3.org/2000/svg" xmlns:xlink="http://www.w3.org/1999/xlink" width="132.18715" height="83.78533" viewBox="0,0,132.18715,83.78533"><defs><linearGradient x1="315.67151" y1="177.48279" x2="270.94594" y2="220.50561" gradientUnits="userSpaceOnUse" id="color-1"><stop offset="0" stop-color="#ffffff" stop-opacity="0"/><stop offset="1" stop-color="#ffffff"/></linearGradient></defs><g transform="translate(-186.1485,-140.85566)"><g data-paper-data="{&quot;isPaintingLayer&quot;:true}" fill-rule="nonzero" stroke-linejoin="miter" stroke-miterlimit="10" stroke-dasharray="" stroke-dashoffset="0" style="mix-blend-mode: normal"><path d="M227.78542,180.00002c0,-6.74594 5.46866,-12.2146 12.2146,-12.2146c6.74594,0 12.2146,5.46866 12.2146,12.2146c0,6.74594 -5.46866,12.2146 -12.2146,12.2146c-6.74594,0 -12.2146,-5.46866 -12.2146,-12.2146z" fill="#ffe887" stroke="#000000" stroke-width="2.5" stroke-linecap="butt"/><path d="M248.26359,177.60169h-12.16244" fill="none" stroke="#000000" stroke-width="1.5" stroke-linecap="round"/><path d="M248.11465,183.78346h-12.16244" fill="none" stroke="#000000" stroke-width="1.5" stroke-linecap="round"/><path d="M318.33566,180.25238l-6.74814,42.02078l-61.05713,-22.99107z" fill="url(#color-1)" stroke="none" stroke-width="0" stroke-linecap="butt"/><g data-paper-data="{&quot;index&quot;:null}" stroke-width="0"><g stroke="#000000" stroke-linecap="butt"><g><path d="M223.23563,188.52673l29.93845,11.35076l-2.39225,6.30976l-29.93845,-11.35075z" fill="#000000"/><g fill="#ffffff"><path d="M222.09684,191.70336l3.17441,-2.23237l0.89648,3.77579l-3.17442,2.23238z"/><path d="M241.41557,199.03161l3.17442,-2.23238l0.89649,3.77582l-3.17442,2.23238z"/><path d="M236.54832,197.18598l3.17441,-2.23237l0.89648,3.77579l-3.17442,2.23239z"/><path d="M231.72953,195.35902l3.17441,-2.23238l0.89647,3.77579l-3.17441,2.23238z"/><path d="M226.98974,193.56198l3.17442,-2.23237l0.89649,3.7758l-3.17441,2.23238z"/></g></g><path d="M246.01918,210.9619c-1.56014,-0.59152 -1.35452,-4.94934 0.45933,-9.73347c1.81385,-4.78413 4.549,-8.18292 6.10917,-7.5914c1.56014,0.59152 1.3545,4.94933 -0.45932,9.73346c-1.81385,4.78414 -4.54901,8.18292 -6.10919,7.59141z" fill="#f5f339"/></g><g stroke="none"><g fill="#ffffff"><path d="M250.96156,199.27785l50.89524,19.29626l-2.29907,6.06399l-50.89526,-19.29626z" stroke-linecap="butt"/><path d="M299.45595,224.64099l2.30739,-6.08594l9.96093,3.77655z" stroke-linecap="round"/></g><g fill="#cccccc"><path d="M250.96156,199.27785l50.19454,19.03059l-2.10654,5.55617l-50.19454,-19.03059z" stroke-linecap="butt"/><path d="M298.95015,223.86489l2.11417,-5.57626l9.8238,3.72455z" stroke-linecap="round"/></g></g></g><g data-paper-data="{&quot;index&quot;:null}" fill="#000000" stroke="#000000" stroke-width="1"><path d="M244.64038,160.27901l-47.8546,25.93472l-3.09004,-5.70172l47.8546,-25.93472z" stroke-linecap="butt"/><path d="M193.76005,180.43309l3.08549,5.69332l-9.36583,5.07579z" stroke-linecap="round"/></g><path d="M243.09179,201.46846c-1.2561,1.0835 -3.15274,0.9436 -4.23625,-0.31251c-1.08351,-1.2561 -0.94359,-3.15273 0.31249,-4.23625c1.2561,-1.08351 3.15274,-0.94359 4.23626,0.3125c1.08351,1.2561 0.9436,3.15274 -0.3125,4.23626z" fill="#ffe887" stroke="#000000" stroke-width="1.25" stroke-linecap="butt"/><path d="M232.9375,197.17079c-1.2561,1.08351 -3.15274,0.9436 -4.23626,-0.3125c-1.08351,-1.2561 -0.94361,-3.15271 0.3125,-4.23626c1.2561,-1.08351 3.15274,-0.94359 4.23625,0.31251c1.08351,1.2561 0.94359,3.15273 -0.3125,4.23624z" fill="#ffe887" stroke="#000000" stroke-width="1.25" stroke-linecap="butt"/><text transform="translate(230.00001,164.10566) scale(0.5,0.5)" font-size="40" xml:space="preserve" fill="#ff0000" fill-rule="nonzero" stroke="none" stroke-width="1" stroke-linecap="butt" stroke-linejoin="miter" stroke-miterlimit="10" stroke-dasharray="" stroke-dashoffset="0" font-family="&quot;ヒラギノ角ゴ Pro W3&quot;, &quot;Hiragino Kaku Gothic Pro&quot;, Osaka, &quot;メイリオ&quot;, Meiryo, &quot;ＭＳ Ｐゴシック&quot;, &quot;MS PGothic&quot;" font-weight="normal" text-anchor="start" style="mix-blend-mode: normal"><tspan x="0" dy="0">戕</tspan></text></g></g></svg>