<svg version="1.1" xmlns="http://www.w3.org/2000/svg" xmlns:xlink="http://www.w3.org/1999/xlink" width="42.45442" height="217.04804" viewBox="0,0,42.45442,217.04804"><g transform="translate(-219.37503,-63.75939)"><g data-paper-data="{&quot;isPaintingLayer&quot;:true}" fill-rule="nonzero" stroke-width="0" stroke-linejoin="miter" stroke-miterlimit="10" stroke-dasharray="" stroke-dashoffset="0" style="mix-blend-mode: normal"><g><g stroke="#000000" stroke-linecap="butt"><g><path d="M232.26902,280.80743v-73.36379h15.462v73.36379z" fill="#000000"/><g fill="#ffffff"><path d="M240.00002,280.66688l-7.3615,-4.98783l7.3615,-4.98782l7.3615,4.98782z"/><path d="M240.0082,233.32344l-7.3615,-4.98782l7.3615,-4.98783l7.36151,4.98783z"/><path d="M240.00759,245.25084l-7.3615,-4.98783l7.3615,-4.98782l7.36151,4.98782z"/><path d="M240.00759,257.05922l-7.3615,-4.98783l7.3615,-4.98782l7.36151,4.98782z"/><path d="M240.00759,268.67401l-7.3615,-4.98782l7.3615,-4.98783l7.36151,4.98783z"/></g></g><path d="M261.82944,213.76916c0,3.82315 -9.50374,6.92243 -21.22721,6.92243c-11.72346,0 -21.2272,-3.09928 -21.2272,-6.92243c0,-3.82315 9.50374,-6.92242 21.22721,-6.92242c11.72347,0 21.22721,3.09928 21.22721,6.92242z" fill="#f5f339"/></g><g stroke="none"><g fill="#ffffff"><path d="M232.78152,212.67102v-124.71821h14.85979v124.71822z" stroke-linecap="butt"/><path d="M247.73011,88.16854h-14.91353v-24.40915z" stroke-linecap="round"/></g><g fill="#cccccc"><path d="M232.78152,212.67102v-123.00112h13.6153v123.00113z" stroke-linecap="butt"/><path d="M246.47818,89.88266h-13.66454v-24.07309z" stroke-linecap="round"/></g></g></g></g></g></svg>