<svg version="1.1" xmlns="http://www.w3.org/2000/svg" xmlns:xlink="http://www.w3.org/1999/xlink" width="85.94748" height="94.93477" viewBox="0,0,85.94748,94.93477"><defs><linearGradient x1="248.68635" y1="150.5822" x2="257.67368" y2="150.5822" gradientUnits="userSpaceOnUse" id="color-1"><stop offset="0" stop-color="#ffffff" stop-opacity="0"/><stop offset="1" stop-color="#ffffff"/></linearGradient></defs><g transform="translate(-186.14851,-108.20633)"><g data-paper-data="{&quot;isPaintingLayer&quot;:true}" fill-rule="nonzero" stroke-linejoin="miter" stroke-miterlimit="10" stroke-dasharray="" stroke-dashoffset="0" style="mix-blend-mode: normal"><path d="M227.78541,180.00002c0,-6.74594 5.46866,-12.2146 12.2146,-12.2146c6.74594,0 12.2146,5.46866 12.2146,12.2146c0,6.74594 -5.46866,12.2146 -12.2146,12.2146c-6.74594,0 -12.2146,-5.46866 -12.2146,-12.2146z" fill="#ffe887" stroke="#000000" stroke-width="2.5" stroke-linecap="butt"/><path d="M248.26358,177.6017h-12.16244" fill="none" stroke="#ff0000" stroke-width="1.5" stroke-linecap="round"/><path d="M235.9522,183.78346h12.16244" fill="none" stroke="#ff0000" stroke-width="1.5" stroke-linecap="round"/><path d="M222.81135,113.33065l42.26718,-4.9768l-5.45386,65.01398z" fill="url(#color-1)" stroke="none" stroke-width="0" stroke-linecap="butt"/><g data-paper-data="{&quot;index&quot;:null}" stroke-width="0"><g stroke="#000000" stroke-linecap="butt"><g><path d="M256.72722,202.5618l2.74871,-31.89976l6.72312,0.57931l-2.74871,31.89976z" fill="#000000"/><g fill="#ffffff"><path d="M260.09406,202.79034l-3.01402,-2.44461l3.38777,-1.89297l3.01402,2.44461z"/><path d="M261.87143,182.20497l-3.01402,-2.44461l3.38778,-1.89298l3.01402,2.44461z"/><path d="M261.42429,187.39116l-3.01402,-2.44461l3.38777,-1.89297l3.01402,2.44461z"/><path d="M260.98187,192.52563l-3.01402,-2.44461l3.38777,-1.89297l3.01402,2.44461z"/><path d="M260.5467,197.57593l-3.01402,-2.44461l3.38777,-1.89299l3.01402,2.44461z"/></g></g><path d="M272.09229,174.52001c-0.14325,1.66236 -4.39175,2.65391 -9.4893,2.21467c-5.09755,-0.43924 -9.11381,-2.14293 -8.97057,-3.80531c0.14325,-1.66236 4.39174,-2.6539 9.48928,-2.21466c5.09756,0.43925 9.11381,2.14294 8.97057,3.80531z" fill="#f5f339"/></g><g stroke="none"><g fill="#ffffff"><path d="M259.50293,172.9542l4.67281,-54.22948l6.46126,0.55675l-4.6728,54.22949z" stroke-linecap="butt"/><path d="M270.66754,119.37859l-6.48464,-0.55876l0.91454,-10.61349z" stroke-linecap="round"/></g><g fill="#cccccc"><path d="M259.50293,172.9542l4.60847,-53.48287l5.92015,0.51012l-4.60847,53.48288z" stroke-linecap="butt"/><path d="M270.05895,120.07701l-5.94156,-0.51196l0.90194,-10.46737z" stroke-linecap="round"/></g></g></g><g data-paper-data="{&quot;index&quot;:null}" fill="#000000" stroke="#000000" stroke-width="1"><path d="M244.64038,160.27902l-47.8546,25.93472l-3.09004,-5.70172l47.8546,-25.93472z" stroke-linecap="butt"/><path d="M193.76005,180.43311l3.08549,5.69332l-9.36583,5.07579z" stroke-linecap="round"/></g><path d="M263.75827,179.9273c1.3852,0.91269 1.76825,2.77551 0.85556,4.16071c-0.91269,1.3852 -2.77551,1.76825 -4.16071,0.85556c-1.3852,-0.91269 -1.76825,-2.77551 -0.85556,-4.16071c0.91269,-1.3852 2.7755,-1.76826 4.1607,-0.85557z" fill="#ffe887" stroke="#000000" stroke-width="1.25" stroke-linecap="butt"/><path d="M262.39518,190.86902c1.3852,0.91269 1.76825,2.77551 0.85556,4.16071c-0.91269,1.3852 -2.77548,1.76826 -4.16071,0.85556c-1.3852,-0.91269 -1.76825,-2.77551 -0.85556,-4.16071c0.91269,-1.3852 2.77551,-1.76825 4.16071,-0.85556z" fill="#ffe887" stroke="#000000" stroke-width="1.25" stroke-linecap="butt"/><text transform="translate(230.00001,164.10566) scale(0.5,0.5)" font-size="40" xml:space="preserve" fill="#ff0000" fill-rule="nonzero" stroke="none" stroke-width="1" stroke-linecap="butt" stroke-linejoin="miter" stroke-miterlimit="10" stroke-dasharray="" stroke-dashoffset="0" font-family="&quot;ヒラギノ角ゴ Pro W3&quot;, &quot;Hiragino Kaku Gothic Pro&quot;, Osaka, &quot;メイリオ&quot;, Meiryo, &quot;ＭＳ Ｐゴシック&quot;, &quot;MS PGothic&quot;" font-weight="normal" text-anchor="start" style="mix-blend-mode: normal"><tspan x="0" dy="0">戕</tspan></text></g></g></svg>