<svg version="1.1" xmlns="http://www.w3.org/2000/svg" xmlns:xlink="http://www.w3.org/1999/xlink" width="84.50525" height="52.95925" viewBox="0,0,84.50525,52.95925"><g transform="translate(-186.14849,-140.50534)"><g data-paper-data="{&quot;isPaintingLayer&quot;:true}" fill-rule="nonzero" stroke-linejoin="miter" stroke-miterlimit="10" stroke-dasharray="" stroke-dashoffset="0" style="mix-blend-mode: normal"><path d="M227.78541,180c0,-6.74594 5.46866,-12.2146 12.2146,-12.2146c6.74594,0 12.2146,5.46866 12.2146,12.2146c0,6.74594 -5.46866,12.2146 -12.2146,12.2146c-6.74594,0 -12.2146,-5.46866 -12.2146,-12.2146z" fill="#ffe887" stroke="#000000" stroke-width="2.5" stroke-linecap="butt"/><path d="M248.26358,177.60168h-12.16244" fill="none" stroke="#ff0000" stroke-width="1.5" stroke-linecap="round"/><path d="M248.11464,183.78345h-12.16244" fill="none" stroke="#ff0000" stroke-width="1.5" stroke-linecap="round"/><g data-paper-data="{&quot;index&quot;:null}" stroke-width="0"><g stroke="#000000" stroke-linecap="butt"><g><path d="M270.65375,146.43813l-28.14982,15.25575l-3.21527,-5.93279l28.14982,-15.25575z" fill="#000000"/><g fill="#ffffff"><path d="M268.99217,143.50097l-0.38304,3.86183l-3.44463,-1.78742l0.38304,-3.86183z"/><path d="M250.82473,153.34273l-0.38304,3.86183l-3.44464,-1.78741l0.38304,-3.86183z"/><path d="M255.40141,150.8627l-0.38304,3.86183l-3.44463,-1.78742l0.38304,-3.86183z"/><path d="M259.93231,148.40719l-0.38304,3.86183l-3.44463,-1.78742l0.38304,-3.86183z"/><path d="M264.38892,145.99194l-0.38304,3.86183l-3.44464,-1.78741l0.38304,-3.86183z"/></g></g><path d="M238.78406,149.03613c1.46695,-0.79501 4.63242,2.20711 7.07028,6.70542c2.43786,4.49831 3.22493,8.7894 1.75797,9.58441c-1.46695,0.79501 -4.63242,-2.20711 -7.07026,-6.70542c-2.43785,-4.49832 -3.22493,-8.7894 -1.75797,-9.58441z" fill="#f5f339"/></g><g stroke="none"><g fill="#ffffff"><path d="M244.40312,160.4102l-47.8546,25.93472l-3.09004,-5.70172l47.8546,-25.93473z" stroke-linecap="butt"/><path d="M193.52279,180.56428l3.10121,5.72235l-9.36583,5.07579z" stroke-linecap="round"/></g><g fill="#cccccc"><path d="M244.40312,160.4102l-47.19575,25.57766l-2.83126,-5.22421l47.19575,-25.57766z" stroke-linecap="butt"/><path d="M194.44084,180.68821l2.8415,5.24311l-9.23689,5.00592z" stroke-linecap="round"/></g></g></g><g data-paper-data="{&quot;index&quot;:null}" fill="#000000" stroke="#000000" stroke-width="1"><path d="M244.64037,160.27901l-47.8546,25.93472l-3.09004,-5.70172l47.8546,-25.93472z" stroke-linecap="butt"/><path d="M193.76004,180.43309l3.08549,5.69332l-9.36583,5.07579z" stroke-linecap="round"/></g><path d="M255.52391,149.20066c0,-1.65885 1.34477,-3.00362 3.00362,-3.00362c1.65885,0 3.00362,1.34477 3.00362,3.00362c0,1.65885 -1.34477,3.00362 -3.00362,3.00362c-1.65885,0 -3.00362,-1.34477 -3.00362,-3.00362z" fill="#ffe887" stroke="#000000" stroke-width="1.25" stroke-linecap="butt"/><path d="M247.43593,153.08149c0,-1.65885 1.34477,-3.00362 3.00362,-3.00362c1.65885,0 3.00362,1.34476 3.00362,3.00362c0,1.65885 -1.34477,3.00362 -3.00362,3.00362c-1.65885,0 -3.00362,-1.34477 -3.00362,-3.00362z" fill="#ffe887" stroke="#000000" stroke-width="1.25" stroke-linecap="butt"/></g></g></svg>