<svg version="1.1" xmlns="http://www.w3.org/2000/svg" xmlns:xlink="http://www.w3.org/1999/xlink" width="83.03358" height="98.99944" viewBox="0,0,83.03358,98.99944"><g transform="translate(-186.14851,-137.13541)"><g data-paper-data="{&quot;isPaintingLayer&quot;:true}" fill-rule="nonzero" stroke-linejoin="miter" stroke-miterlimit="10" stroke-dasharray="" stroke-dashoffset="0" style="mix-blend-mode: normal"><path d="M227.78541,180.00002c0,-6.74594 5.46866,-12.2146 12.2146,-12.2146c6.74594,0 12.2146,5.46866 12.2146,12.2146c0,6.74594 -5.46866,12.2146 -12.2146,12.2146c-6.74594,0 -12.2146,-5.46866 -12.2146,-12.2146z" fill="#ffe887" stroke="#000000" stroke-width="2.5" stroke-linecap="butt"/><path d="M236.10114,177.6017h12.16244" fill="none" stroke="#ff0000" stroke-width="1.5" stroke-linecap="round"/><path d="M248.11464,183.78347h-12.16244" fill="none" stroke="#ff0000" stroke-width="1.5" stroke-linecap="round"/><g data-paper-data="{&quot;index&quot;:null}" stroke-width="0"><g stroke="#000000" stroke-linecap="butt"><g><path d="M253.5488,235.49219l3.0493,-31.87243l6.71736,0.64266l-3.0493,31.87243z" fill="#000000"/><g fill="#ffffff"><path d="M256.91332,235.75245l-2.99085,-2.47291l3.40547,-1.86095l2.99084,2.47291z"/><path d="M258.88467,215.18475l-2.99084,-2.47291l3.40547,-1.86096l2.99084,2.47291z"/><path d="M258.38866,220.3665l-2.99084,-2.47291l3.40546,-1.86096l2.99085,2.47291z"/><path d="M257.89785,225.49658l-2.99084,-2.47291l3.40546,-1.86095l2.99085,2.47291z"/><path d="M257.41508,230.54254l-2.99084,-2.47291l3.40546,-1.86097l2.99085,2.47291z"/></g></g><path d="M269.17753,207.59649c-0.15891,1.66094 -4.41656,2.61239 -9.50975,2.12512c-5.09319,-0.48728 -9.09321,-2.22875 -8.9343,-3.8897c0.15891,-1.66094 4.41656,-2.61238 9.50974,-2.1251c5.09319,0.48728 9.0932,2.22876 8.93429,3.8897z" fill="#f5f339"/></g><g stroke="none"><g fill="#ffffff"><path d="M256.60348,205.91206l5.18381,-54.18302l6.45573,0.61763l-5.1838,54.18303z" stroke-linecap="butt"/><path d="M268.27263,152.44409l-6.47908,-0.61987l1.01455,-10.6044z" stroke-linecap="round"/></g><g fill="#cccccc"><path d="M256.60348,205.91206l5.11243,-53.43705l5.91508,0.56591l-5.11244,53.43706z" stroke-linecap="butt"/><path d="M267.65749,153.13674l-5.93647,-0.56794l1.00058,-10.4584z" stroke-linecap="round"/></g></g></g><g data-paper-data="{&quot;index&quot;:null}" fill="#000000" stroke="#000000" stroke-width="1"><path d="M244.64038,160.27902l-47.8546,25.93472l-3.09004,-5.70172l47.8546,-25.93472z" stroke-linecap="butt"/><path d="M193.76005,180.43311l3.08549,5.69332l-9.36583,5.07579z" stroke-linecap="round"/></g><path d="M260.7929,212.92498c1.37654,0.9257 1.74201,2.79205 0.8163,4.16859c-0.92571,1.37653 -2.79206,1.742 -4.16859,0.8163c-1.37653,-0.9257 -1.742,-2.79205 -0.8163,-4.16858c0.9257,-1.37653 2.79204,-1.74201 4.16858,-0.8163z" fill="#ffe887" stroke="#000000" stroke-width="1.25" stroke-linecap="butt"/><path d="M259.32673,223.85335c1.37654,0.9257 1.74201,2.79206 0.8163,4.16859c-0.9257,1.37653 -2.79204,1.74201 -4.16859,0.8163c-1.37653,-0.9257 -1.74201,-2.79206 -0.8163,-4.16859c0.9257,-1.37653 2.79206,-1.74201 4.16859,-0.8163z" fill="#ffe887" stroke="#000000" stroke-width="1.25" stroke-linecap="butt"/><text transform="translate(228.00001,165.61666) scale(0.6125,0.6125)" font-size="40" xml:space="preserve" fill="#a7ffff" fill-rule="nonzero" stroke="none" stroke-width="1" stroke-linecap="butt" stroke-linejoin="miter" stroke-miterlimit="10" stroke-dasharray="" stroke-dashoffset="0" font-family="&quot;ヒラギノ角ゴ Pro W3&quot;, &quot;Hiragino Kaku Gothic Pro&quot;, Osaka, &quot;メイリオ&quot;, Meiryo, &quot;ＭＳ Ｐゴシック&quot;, &quot;MS PGothic&quot;" font-weight="normal" text-anchor="start" style="mix-blend-mode: normal"><tspan x="0" dy="0">搪</tspan></text><text transform="translate(230.00001,164.36666) scale(0.5,0.5)" font-size="40" xml:space="preserve" fill="#00fdff" fill-rule="nonzero" stroke="none" stroke-width="1" stroke-linecap="butt" stroke-linejoin="miter" stroke-miterlimit="10" stroke-dasharray="" stroke-dashoffset="0" font-family="&quot;ヒラギノ角ゴ Pro W3&quot;, &quot;Hiragino Kaku Gothic Pro&quot;, Osaka, &quot;メイリオ&quot;, Meiryo, &quot;ＭＳ Ｐゴシック&quot;, &quot;MS PGothic&quot;" font-weight="normal" text-anchor="start" style="mix-blend-mode: normal"><tspan x="0" dy="0">搪</tspan></text></g></g></svg>