<svg version="1.1" xmlns="http://www.w3.org/2000/svg" xmlns:xlink="http://www.w3.org/1999/xlink" width="93.05162" height="76.03952" viewBox="0,0,93.05162,76.03952"><g transform="translate(-186.14849,-117.42509)"><g data-paper-data="{&quot;isPaintingLayer&quot;:true}" fill-rule="nonzero" stroke-linejoin="miter" stroke-miterlimit="10" stroke-dasharray="" stroke-dashoffset="0" style="mix-blend-mode: normal"><path d="M227.78541,180.00001c0,-6.74594 5.46866,-12.2146 12.2146,-12.2146c6.74594,0 12.2146,5.46866 12.2146,12.2146c0,6.74594 -5.46866,12.2146 -12.2146,12.2146c-6.74594,0 -12.2146,-5.46866 -12.2146,-12.2146z" fill="#ffe887" stroke="#000000" stroke-width="2.5" stroke-linecap="butt"/><path d="M248.26358,177.60169h-12.16244" fill="none" stroke="#000000" stroke-width="1.5" stroke-linecap="round"/><path d="M235.9522,183.78346h12.16244" fill="none" stroke="#000000" stroke-width="1.5" stroke-linecap="round"/><g data-paper-data="{&quot;index&quot;:null}" stroke-width="0"><g stroke="#000000" stroke-linecap="butt"><g><path d="M273.92793,191.5828l-19.98447,-25.01542l5.27219,-4.21188l19.98447,25.01542z" fill="#000000"/><g fill="#ffffff"><path d="M276.52574,189.42893l-3.86881,0.30455l1.15141,-3.70602l3.86881,-0.30455z"/><path d="M263.63208,173.28365l-3.86881,0.30455l1.15141,-3.70603l3.86881,-0.30455z"/><path d="M266.88092,177.35078l-3.86881,0.30455l1.15141,-3.70602l3.86881,-0.30455z"/><path d="M270.09755,181.37718l-3.86881,0.30455l1.15141,-3.70602l3.86881,-0.30455z"/><path d="M273.26144,185.33756l-3.86881,0.30455l1.1514,-3.70603l3.86881,-0.30455z"/></g></g><path d="M265.746,160.67191c1.04143,1.30361 -1.35488,4.94924 -5.35232,8.14274c-3.99744,3.1935 -8.08225,4.72556 -9.12369,3.42194c-1.04143,-1.30361 1.35488,-4.94923 5.35232,-8.14272c3.99745,-3.1935 8.08226,-4.72555 9.12369,-3.42194z" fill="#f5f339"/></g><g stroke="none"><g fill="#ffffff"><path d="M255.54217,168.2102l-33.97352,-42.52613l5.06685,-4.04783l33.97353,42.52613z" stroke-linecap="butt"/><path d="M226.72455,121.6856l-5.08518,4.06248l-6.6491,-8.32298z" stroke-linecap="round"/></g><g fill="#cccccc"><path d="M255.54217,168.2102l-33.50579,-41.94064l4.64251,-3.70884l33.50579,41.94065z" stroke-linecap="butt"/><path d="M226.76459,122.61111l-4.6593,3.72226l-6.55757,-8.20839z" stroke-linecap="round"/></g></g></g><g data-paper-data="{&quot;index&quot;:null}" fill="#000000" stroke="#000000" stroke-width="1"><path d="M244.64037,160.27902l-47.8546,25.93472l-3.09004,-5.70172l47.8546,-25.93472z" stroke-linecap="butt"/><path d="M193.76004,180.4331l3.08549,5.69332l-9.36583,5.07579z" stroke-linecap="round"/></g><path d="M263.43055,170.33284c1.63281,-0.29277 3.19381,0.79355 3.48658,2.42636c0.29277,1.63281 -0.79355,3.19381 -2.42636,3.48658c-1.63281,0.29277 -3.19381,-0.79355 -3.48658,-2.42636c-0.29277,-1.63281 0.79354,-3.19381 2.42635,-3.48658z" fill="#ffe887" stroke="#000000" stroke-width="1.25" stroke-linecap="butt"/><path d="M269.98066,179.20274c1.63281,-0.29277 3.19381,0.79355 3.48658,2.42636c0.29277,1.63281 -0.79353,3.1938 -2.42636,3.48658c-1.63281,0.29277 -3.19381,-0.79355 -3.48658,-2.42636c-0.29277,-1.63281 0.79355,-3.19381 2.42636,-3.48658z" fill="#ffe887" stroke="#000000" stroke-width="1.25" stroke-linecap="butt"/></g></g></svg>