<svg version="1.1" xmlns="http://www.w3.org/2000/svg" xmlns:xlink="http://www.w3.org/1999/xlink" width="133.71465" height="66.888" viewBox="0,0,133.71465,66.888"><defs><linearGradient x1="306.57738" y1="150.43491" x2="281.41609" y2="207.16454" gradientUnits="userSpaceOnUse" id="color-1"><stop offset="0" stop-color="#ffffff" stop-opacity="0"/><stop offset="1" stop-color="#ffffff"/></linearGradient></defs><g transform="translate(-186.1485,-140.85566)"><g data-paper-data="{&quot;isPaintingLayer&quot;:true}" fill-rule="nonzero" stroke-linejoin="miter" stroke-miterlimit="10" stroke-dasharray="" stroke-dashoffset="0" style="mix-blend-mode: normal"><path d="M227.78542,180.00005c0,-6.74594 5.46866,-12.2146 12.2146,-12.2146c6.74594,0 12.2146,5.46866 12.2146,12.2146c0,6.74594 -5.46866,12.2146 -12.2146,12.2146c-6.74594,0 -12.2146,-5.46866 -12.2146,-12.2146z" fill="#ffe887" stroke="#000000" stroke-width="2.5" stroke-linecap="butt"/><path d="M236.10115,177.60171h12.16244" fill="none" stroke="#ff0000" stroke-width="1.5" stroke-linecap="round"/><path d="M235.95221,183.78348h12.16244" fill="none" stroke="#ff0000" stroke-width="1.5" stroke-linecap="round"/><path d="M310.09031,151.993l9.62416,41.45671l-65.21818,1.77509z" fill="url(#color-1)" stroke="none" stroke-width="0" stroke-linecap="butt"/><g data-paper-data="{&quot;index&quot;:null}" stroke-width="0"><g stroke="#000000" stroke-linecap="butt"><g><path d="M225.16101,195.5762l32.00801,-0.79869l0.16834,6.74593l-32.00801,0.7987z" fill="#000000"/><g fill="#ffffff"><path d="M225.30649,198.94766l2.09601,-3.26605l2.25628,3.15744l-2.09602,3.26606z"/><path d="M245.9621,198.43581l2.09602,-3.26606l2.25631,3.15747l-2.09602,3.26606z"/><path d="M240.75829,198.5654l2.09601,-3.26605l2.25628,3.15744l-2.09602,3.26607z"/><path d="M235.6064,198.69397l2.09601,-3.26606l2.25628,3.15745l-2.09601,3.26606z"/><path d="M230.53896,198.82041l2.09602,-3.26605l2.2563,3.15745l-2.09601,3.26606z"/></g></g><path d="M254.73106,207.74335c-1.66799,0.04161 -3.12367,-4.07104 -3.25129,-9.18589c-0.12762,-5.11485 1.12109,-9.29499 2.78911,-9.3366c1.66799,-0.04161 3.12365,4.07104 3.2513,9.18587c0.12762,5.11486 -1.1211,9.29499 -2.78912,9.33662z" fill="#f5f339"/></g><g stroke="none"><g fill="#ffffff"><path d="M254.89391,195.05802l54.41349,-1.35776l0.16178,6.48317l-54.4135,1.35777z" stroke-linecap="butt"/><path d="M309.37603,200.22455l-0.16237,-6.50664l10.6495,-0.26574z" stroke-linecap="round"/></g><g fill="#cccccc"><path d="M254.89391,195.05802l53.66435,-1.33908l0.14823,5.94025l-53.66435,1.33908z" stroke-linecap="butt"/><path d="M308.61455,199.69701l-0.14876,-5.96173l10.50289,-0.26209z" stroke-linecap="round"/></g></g></g><g data-paper-data="{&quot;index&quot;:null}" fill="#000000" stroke="#000000" stroke-width="1"><path d="M244.64038,160.27902l-47.8546,25.93472l-3.09004,-5.70172l47.8546,-25.93472z" stroke-linecap="butt"/><path d="M193.76005,180.43311l3.08549,5.69332l-9.36583,5.07579z" stroke-linecap="round"/></g><path d="M248.43461,200.05897c-0.75378,1.4777 -2.56275,2.06457 -4.04046,1.31079c-1.4777,-0.75377 -2.06456,-2.56275 -1.3108,-4.04045c0.75377,-1.4777 2.56276,-2.06456 4.04046,-1.3108c1.4777,0.75377 2.06457,2.56275 1.3108,4.04046z" fill="#ffe887" stroke="#000000" stroke-width="1.25" stroke-linecap="butt"/><path d="M237.40923,199.91524c-0.75377,1.4777 -2.56275,2.06457 -4.04046,1.3108c-1.4777,-0.75377 -2.06457,-2.56272 -1.3108,-4.04046c0.75377,-1.4777 2.56276,-2.06456 4.04046,-1.31079c1.4777,0.75377 2.06456,2.56275 1.31079,4.04045z" fill="#ffe887" stroke="#000000" stroke-width="1.25" stroke-linecap="butt"/><text transform="translate(230.00001,164.10566) scale(0.5,0.5)" font-size="40" xml:space="preserve" fill="#ff0000" fill-rule="nonzero" stroke="none" stroke-width="1" stroke-linecap="butt" stroke-linejoin="miter" stroke-miterlimit="10" stroke-dasharray="" stroke-dashoffset="0" font-family="&quot;ヒラギノ角ゴ Pro W3&quot;, &quot;Hiragino Kaku Gothic Pro&quot;, Osaka, &quot;メイリオ&quot;, Meiryo, &quot;ＭＳ Ｐゴシック&quot;, &quot;MS PGothic&quot;" font-weight="normal" text-anchor="start" style="mix-blend-mode: normal"><tspan x="0" dy="0">戕</tspan></text></g></g></svg>