<svg version="1.1" xmlns="http://www.w3.org/2000/svg" xmlns:xlink="http://www.w3.org/1999/xlink" width="110.35781" height="98.43032" viewBox="0,0,110.35781,98.43032"><defs><linearGradient x1="262.39625" y1="154.2251" x2="270.37001" y2="158.37133" gradientUnits="userSpaceOnUse" id="color-1"><stop offset="0" stop-color="#ffffff" stop-opacity="0"/><stop offset="1" stop-color="#ffffff"/></linearGradient></defs><g transform="translate(-186.14849,-109.23745)"><g data-paper-data="{&quot;isPaintingLayer&quot;:true}" fill-rule="nonzero" stroke-linejoin="miter" stroke-miterlimit="10" stroke-dasharray="" stroke-dashoffset="0" style="mix-blend-mode: normal"><path d="M227.78541,180.00002c0,-6.74594 5.46866,-12.2146 12.2146,-12.2146c6.74594,0 12.2146,5.46866 12.2146,12.2146c0,6.74594 -5.46866,12.2146 -12.2146,12.2146c-6.74594,0 -12.2146,-5.46866 -12.2146,-12.2146z" fill="#ffe887" stroke="#000000" stroke-width="2.5" stroke-linecap="butt"/><path d="M248.26358,177.60169h-12.16244" fill="none" stroke="#000000" stroke-width="1.5" stroke-linecap="round"/><path d="M235.9522,183.78346h12.16244" fill="none" stroke="#000000" stroke-width="1.5" stroke-linecap="round"/><path d="M256.6251,109.23745l39.79639,15.08412l-34.83249,55.16575z" fill="url(#color-1)" stroke="none" stroke-width="0" stroke-linecap="butt"/><g data-paper-data="{&quot;index&quot;:null}" stroke-width="0"><g stroke="#000000" stroke-linecap="butt"><g><path d="M245.54991,204.05214l17.15543,-27.03408l5.69764,3.61564l-17.15543,27.03408z" fill="#000000"/><g fill="#ffffff"><path d="M248.4316,205.80816l-1.5463,-3.55941l3.87901,-0.11656l1.5463,3.55941z"/><path d="M259.50542,188.36435l-1.5463,-3.55941l3.87903,-0.11657l1.5463,3.55941z"/><path d="M256.7161,192.75936l-1.5463,-3.55941l3.87901,-0.11656l1.5463,3.55941z"/><path d="M253.95483,197.11068l-1.5463,-3.55941l3.87901,-0.11656l1.5463,3.55941z"/><path d="M251.23882,201.39064l-1.5463,-3.55941l3.87902,-0.11658l1.5463,3.55941z"/></g></g><path d="M272.11901,186.2614c-0.89401,1.4088 -5.12082,0.32851 -9.44084,-2.41291c-4.32002,-2.74142 -7.09735,-6.10584 -6.20334,-7.51466c0.89401,-1.4088 5.12081,-0.3285 9.44082,2.41291c4.32002,2.74143 7.09735,6.10585 6.20334,7.51466z" fill="#f5f339"/></g><g stroke="none"><g fill="#ffffff"><path d="M261.67181,179.06416l29.16418,-45.95783l5.47572,3.47481l-29.16418,45.95784z" stroke-linecap="butt"/><path d="M296.294,136.6814l-5.49554,-3.48738l5.70785,-8.99461z" stroke-linecap="round"/></g><g fill="#cccccc"><path d="M261.67181,179.06416l28.76265,-45.32511l5.01715,3.18381l-28.76266,45.32511z" stroke-linecap="butt"/><path d="M295.43184,137.02029l-5.03529,-3.19532l5.62926,-8.87078z" stroke-linecap="round"/></g></g></g><g data-paper-data="{&quot;index&quot;:null}" fill="#000000" stroke="#000000" stroke-width="1"><path d="M244.64037,160.27901l-47.8546,25.93472l-3.09004,-5.70172l47.8546,-25.93472z" stroke-linecap="butt"/><path d="M193.76004,180.43309l3.08549,5.69332l-9.36583,5.07579z" stroke-linecap="round"/></g><path d="M262.23026,187.21403c0.80792,1.44881 0.28837,3.27826 -1.16044,4.08618c-1.44881,0.80792 -3.27826,0.28837 -4.08618,-1.16044c-0.80792,-1.44881 -0.28837,-3.27826 1.16044,-4.08618c1.44881,-0.80792 3.27826,-0.28838 4.08618,1.16043z" fill="#ffe887" stroke="#000000" stroke-width="1.25" stroke-linecap="butt"/><path d="M255.97301,196.29292c0.80792,1.44881 0.28837,3.27826 -1.16044,4.08618c-1.44881,0.80792 -3.27824,0.28839 -4.08618,-1.16044c-0.80792,-1.44881 -0.28837,-3.27826 1.16044,-4.08618c1.44881,-0.80792 3.27826,-0.28837 4.08618,1.16044z" fill="#ffe887" stroke="#000000" stroke-width="1.25" stroke-linecap="butt"/><text transform="translate(230.00001,164.10566) scale(0.5,0.5)" font-size="40" xml:space="preserve" fill="#ff0000" fill-rule="nonzero" stroke="none" stroke-width="1" stroke-linecap="butt" stroke-linejoin="miter" stroke-miterlimit="10" stroke-dasharray="" stroke-dashoffset="0" font-family="&quot;ヒラギノ角ゴ Pro W3&quot;, &quot;Hiragino Kaku Gothic Pro&quot;, Osaka, &quot;メイリオ&quot;, Meiryo, &quot;ＭＳ Ｐゴシック&quot;, &quot;MS PGothic&quot;" font-weight="normal" text-anchor="start" style="mix-blend-mode: normal"><tspan x="0" dy="0">戕</tspan></text></g></g></svg>