<svg version="1.1" xmlns="http://www.w3.org/2000/svg" xmlns:xlink="http://www.w3.org/1999/xlink" width="130.86096" height="80.37246" viewBox="0,0,130.86096,80.37246"><defs><linearGradient x1="287.42372" y1="125.60425" x2="287.42372" y2="187.66342" gradientUnits="userSpaceOnUse" id="color-1"><stop offset="0" stop-color="#ffffff" stop-opacity="0"/><stop offset="1" stop-color="#ffffff"/></linearGradient></defs><g transform="translate(-186.1485,-125.60425)"><g data-paper-data="{&quot;isPaintingLayer&quot;:true}" fill-rule="nonzero" stroke-linejoin="miter" stroke-miterlimit="10" stroke-dasharray="" stroke-dashoffset="0" style="mix-blend-mode: normal"><path d="M227.78542,180.00001c0,-6.74594 5.46866,-12.2146 12.2146,-12.2146c6.74594,0 12.2146,5.46866 12.2146,12.2146c0,6.74594 -5.46866,12.2146 -12.2146,12.2146c-6.74594,0 -12.2146,-5.46866 -12.2146,-12.2146z" fill="#ffe887" stroke="#000000" stroke-width="2.5" stroke-linecap="butt"/><path d="M236.10115,177.60169h12.16244" fill="none" stroke="#ff0000" stroke-width="1.5" stroke-linecap="round"/><path d="M235.95221,183.78346h12.16244" fill="none" stroke="#ff0000" stroke-width="1.5" stroke-linecap="round"/><path d="M291.26668,125.60425l25.60587,33.99445l-58.89765,28.06472z" fill="url(#color-1)" stroke="none" stroke-width="0" stroke-linecap="butt"/><g data-paper-data="{&quot;index&quot;:null}" stroke-width="0"><g stroke="#000000" stroke-linecap="butt"><g><path d="M231.30136,199.87835l28.93539,-13.70743l2.88895,6.09835l-28.93538,13.70744z" fill="#000000"/><g fill="#ffffff"><path d="M232.80127,202.90128l0.59182,-3.83538l3.34267,1.9715l-0.59182,3.83539z"/><path d="M251.47548,194.05877l0.59182,-3.83539l3.3427,1.97151l-0.59182,3.83539z"/><path d="M246.77111,196.28707l0.59182,-3.83538l3.34267,1.9715l-0.59182,3.83539z"/><path d="M242.11378,198.49338l0.59182,-3.83538l3.34267,1.9715l-0.59182,3.83539z"/><path d="M237.53279,200.66351l0.59182,-3.83538l3.34269,1.9715l-0.59182,3.83538z"/></g></g><path d="M263.26503,199.01172c-1.50788,0.71431 -4.50598,-2.45497 -6.69641,-7.07882c-2.19043,-4.62385 -2.74375,-8.95129 -1.23585,-9.66561c1.50788,-0.71431 4.50596,2.45498 6.69641,7.0788c2.19043,4.62386 2.74374,8.95129 1.23585,9.66562z" fill="#f5f339"/></g><g stroke="none"><g fill="#ffffff"><path d="M258.27075,187.34976l49.19006,-23.30258l2.77642,5.86082l-49.19005,23.30259z" stroke-linecap="butt"/><path d="M310.16875,169.98335l-2.78648,-5.88203l9.6272,-4.56065z" stroke-linecap="round"/></g><g fill="#cccccc"><path d="M258.27075,187.34976l48.51282,-22.98177l2.54391,5.37001l-48.51283,22.98177z" stroke-linecap="butt"/><path d="M309.25878,169.80984l-2.55311,-5.38943l9.49466,-4.49788z" stroke-linecap="round"/></g></g></g><g data-paper-data="{&quot;index&quot;:null}" fill="#000000" stroke="#000000" stroke-width="1"><path d="M244.64038,160.27901l-47.8546,25.93472l-3.09004,-5.70172l47.8546,-25.93472z" stroke-linecap="butt"/><path d="M193.76005,180.43309l3.08549,5.69332l-9.36583,5.07579z" stroke-linecap="round"/></g><path d="M254.39375,194.54009c-0.08993,1.65641 -1.5056,2.92631 -3.16202,2.83639c-1.65641,-0.08992 -2.9263,-1.50561 -2.83639,-3.16202c0.08992,-1.65641 1.50561,-2.9263 3.16202,-2.83639c1.65641,0.08992 2.92631,1.5056 2.83639,3.16202z" fill="#ffe887" stroke="#000000" stroke-width="1.25" stroke-linecap="butt"/><path d="M244.25694,198.87883c-0.08992,1.65641 -1.5056,2.92631 -3.16202,2.83639c-1.65641,-0.08992 -2.9263,-1.50558 -2.83639,-3.16202c0.08992,-1.65641 1.50561,-2.9263 3.16202,-2.83639c1.65641,0.08992 2.9263,1.50561 2.83638,3.16202z" fill="#ffe887" stroke="#000000" stroke-width="1.25" stroke-linecap="butt"/><text transform="translate(230.00001,164.10566) scale(0.5,0.5)" font-size="40" xml:space="preserve" fill="#ff0000" fill-rule="nonzero" stroke="none" stroke-width="1" stroke-linecap="butt" stroke-linejoin="miter" stroke-miterlimit="10" stroke-dasharray="" stroke-dashoffset="0" font-family="&quot;ヒラギノ角ゴ Pro W3&quot;, &quot;Hiragino Kaku Gothic Pro&quot;, Osaka, &quot;メイリオ&quot;, Meiryo, &quot;ＭＳ Ｐゴシック&quot;, &quot;MS PGothic&quot;" font-weight="normal" text-anchor="start" style="mix-blend-mode: normal"><tspan x="0" dy="0">戕</tspan></text></g></g></svg>