<svg version="1.1" xmlns="http://www.w3.org/2000/svg" xmlns:xlink="http://www.w3.org/1999/xlink" width="88.54955" height="55.2061" viewBox="0,0,88.54955,55.2061"><g transform="translate(-186.1485,-138.25851)"><g data-paper-data="{&quot;isPaintingLayer&quot;:true}" fill-rule="nonzero" stroke-linejoin="miter" stroke-miterlimit="10" stroke-dasharray="" stroke-dashoffset="0" style="mix-blend-mode: normal"><path d="M227.78541,180c0,-6.74594 5.46866,-12.2146 12.2146,-12.2146c6.74594,0 12.2146,5.46866 12.2146,12.2146c0,6.74594 -5.46866,12.2146 -12.2146,12.2146c-6.74594,0 -12.2146,-5.46866 -12.2146,-12.2146z" fill="#ffe887" stroke="#000000" stroke-width="2.5" stroke-linecap="butt"/><path d="M236.10114,177.60168h12.16244" fill="none" stroke="#ff0000" stroke-width="1.5" stroke-linecap="round"/><path d="M248.11464,183.78345h-12.16244" fill="none" stroke="#ff0000" stroke-width="1.5" stroke-linecap="round"/><g data-paper-data="{&quot;index&quot;:null}" stroke-width="0"><g stroke="#000000" stroke-linecap="butt"><g><path d="M274.69805,144.1913l-28.14982,15.25575l-3.21527,-5.93279l28.14982,-15.25575z" fill="#000000"/><g fill="#ffffff"><path d="M273.03648,141.25412l-0.38304,3.86183l-3.44463,-1.78742l0.38304,-3.86183z"/><path d="M254.86903,151.09589l-0.38304,3.86183l-3.44464,-1.78741l0.38304,-3.86183z"/><path d="M259.44571,148.61586l-0.38304,3.86183l-3.44463,-1.78742l0.38304,-3.86183z"/><path d="M263.97661,146.16035l-0.38304,3.86183l-3.44463,-1.78742l0.38304,-3.86183z"/><path d="M268.43322,143.7451l-0.38304,3.86183l-3.44464,-1.78741l0.38304,-3.86183z"/></g></g><path d="M242.82836,146.78929c1.46695,-0.79501 4.63242,2.20711 7.07028,6.70542c2.43786,4.49831 3.22493,8.7894 1.75797,9.58441c-1.46695,0.79501 -4.63242,-2.20711 -7.07026,-6.70542c-2.43785,-4.49832 -3.22493,-8.7894 -1.75797,-9.58441z" fill="#f5f339"/></g><g stroke="none"><g fill="#ffffff"><path d="M248.44742,158.16338l-47.8546,25.93472l-3.09004,-5.70172l47.8546,-25.93473z" stroke-linecap="butt"/><path d="M197.56709,178.31744l3.10121,5.72235l-9.36583,5.07579z" stroke-linecap="round"/></g><g fill="#cccccc"><path d="M248.44742,158.16338l-47.19575,25.57766l-2.83126,-5.22421l47.19575,-25.57766z" stroke-linecap="butt"/><path d="M198.48514,178.44137l2.8415,5.24311l-9.23689,5.00592z" stroke-linecap="round"/></g></g></g><g data-paper-data="{&quot;index&quot;:null}" fill="#000000" stroke="#000000" stroke-width="1"><path d="M244.64037,160.27902l-47.8546,25.93472l-3.09004,-5.70172l47.8546,-25.93472z" stroke-linecap="butt"/><path d="M193.76004,180.43309l3.08549,5.69332l-9.36583,5.07579z" stroke-linecap="round"/></g><path d="M251.92897,150.77346c0,-1.65885 1.34477,-3.00362 3.00362,-3.00362c1.65885,0 3.00362,1.34477 3.00362,3.00362c0,1.65885 -1.34477,3.00362 -3.00362,3.00362c-1.65885,0 -3.00362,-1.34477 -3.00362,-3.00362z" fill="#ffe887" stroke="#000000" stroke-width="1.25" stroke-linecap="butt"/><path d="M237.10049,158.47391c0,-1.65885 1.34477,-3.00362 3.00362,-3.00362c1.65885,0 3.00362,1.34476 3.00362,3.00362c0,1.65885 -1.34477,3.00362 -3.00362,3.00362c-1.65885,0 -3.00362,-1.34477 -3.00362,-3.00362z" fill="#ffe887" stroke="#000000" stroke-width="1.25" stroke-linecap="butt"/></g></g></svg>